FILE "Actua Golf 3 (Europe).bin" BINARY
  TRACK 01 MODE2/2352
    INDEX 01 00:00:00
  TRACK 02 AUDIO
    INDEX 00 49:36:09
    INDEX 01 49:38:09
  TRACK 03 AUDIO
    INDEX 00 52:31:52
    INDEX 01 52:33:52
